HIERARCHY
ROOT hip
{
	OFFSET 0.00 0.00 0.00
	CHANNELS 6 Xposition Yposition Zposition Xrotation Yrotation Zrotation
	JOINT abdomen
	{
		OFFSET 0.0000 3.3100 -0.0000
		CHANNELS 3 Xrotation Yrotation Zrotation
		JOINT chest
		{
			OFFSET 0.0000 8.0660 -0.6050
			CHANNELS 3 Xrotation Yrotation Zrotation
			JOINT neck
			{
				OFFSET 0.0000 9.8861 -0.3705
				CHANNELS 3 Xrotation Yrotation Zrotation
				JOINT head
				{
					OFFSET 0.0000 2.9776 -0.0000
					CHANNELS 3 Xrotation Yrotation Zrotation
					End Site
					{
						OFFSET 0.0000 3.1102 -0.0000
					}
				}
			}
			JOINT lCollar
			{
				OFFSET 2.8220 6.5116 -0.8157
				CHANNELS 3 Xrotation Yrotation Zrotation
				JOINT lShldr
				{
					OFFSET 3.1102 0.0000 0.0000
					CHANNELS 3 Xrotation Yrotation Zrotation
					JOINT lForeArm
					{
						OFFSET 10.9354 0.0000 0.0000
						CHANNELS 3 Xrotation Yrotation Zrotation
						JOINT lHand
						{
							OFFSET 9.5165 0.0000 0.0000
							CHANNELS 3 Xrotation Yrotation Zrotation
							End Site
							{
								OFFSET 3.9370 0.0000 0.0000
							}
						}
					}
				}
			}
			JOINT rCollar
			{
				OFFSET -2.8346 6.5116 -0.8157
				CHANNELS 3 Xrotation Yrotation Zrotation
				JOINT rShldr
				{
					OFFSET -3.1267 0.0000 0.0000
					CHANNELS 3 Xrotation Yrotation Zrotation
					JOINT rForeArm
					{
						OFFSET -10.9354 0.0000 0.0000
						CHANNELS 3 Xrotation Yrotation Zrotation
						JOINT rHand
						{
							OFFSET -9.5236 0.0000 0.0000
							CHANNELS 3 Xrotation Yrotation Zrotation
							End Site
							{
								OFFSET -3.9370 0.0000 0.0000
							}
						}
					}
				}
			}
		}
	}
	JOINT rThigh
	{
		OFFSET -5.0711 -1.6176 1.3236
		CHANNELS 3 Xrotation Yrotation Zrotation
		JOINT rShin
		{
			OFFSET 1.9148 -19.3276 -0.0307
			CHANNELS 3 Xrotation Yrotation Zrotation
			JOINT rFoot
			{
				OFFSET 0.0000 -18.4446 -1.1366
				CHANNELS 3 Xrotation Yrotation Zrotation
				End Site
				{
					OFFSET 0.0000 -2.3873 4.4077
				}
			}
		}
	}
	JOINT lThigh
	{
		OFFSET 4.9907 -1.6141 1.3290
		CHANNELS 3 Xrotation Yrotation Zrotation
		JOINT lShin
		{
			OFFSET -1.7940 -19.3328 -0.0349
			CHANNELS 3 Xrotation Yrotation Zrotation
			JOINT lFoot
			{
				OFFSET 0.0543 -18.4448 -1.1373
				CHANNELS 3 Xrotation Yrotation Zrotation
				End Site
				{
					OFFSET 0.0000 -2.3866 4.4077
				}
			}
		}
	}
}
MOTION
Frames: 25
Frame Time: 0.041667
0.0000 0.0000 0.0000 0.0000 0.0000 0.0000 0.0000 0.0000 0.0000 1.0000 0.0000 0.0000 0.0000 0.0000 0.0000 1.0000 0.0000 0.0000 1.0000 0.0000 0.0000 0.0000 0.0000 0.0000 1.0000 0.0000 0.0000 0.0000 0.0000 0.0000 1.0000 0.0000 0.0000 0.0000 0.0000 0.0000 1.0000 0.0000 0.0000 0.0000 0.0000 0.0000 0.0000 0.0000 0.0000 0.0000 0.0000 0.0000 0.0000 0.0000 0.0000 0.0000 0.0000 0.0000 0.0000 0.0000 0.0000 0.0000 0.0000 0.0000 
-0.1505 -23.3964 -0.5081 -0.2395 0.0000 -2.6057 98.7209 0.0036 0.0567 0.0000 0.0000 0.0000 -27.6372 0.0000 0.0000 0.0000 0.0000 0.0000 0.0000 0.0000 0.0000 83.4162 -79.7508 103.6825 0.0000 -0.1146 0.0000 -6.6942 12.2780 85.6633 0.0000 0.0000 0.0001 -65.9772 101.3104 61.4488 0.0000 0.1146 0.0000 -3.0280 -14.5804 -81.4508 -17.7402 0.0000 0.0000 105.9269 0.0000 0.0000 56.1650 0.0000 0.0000 23.2153 0.0000 0.0000 61.3735 0.1917 0.1206 63.3709 0.1485 0.3021 
-0.1520 -23.3963 -0.5081 -0.2395 0.0001 -2.6314 98.7257 0.0036 0.0565 0.0000 0.0000 0.0000 -27.8082 0.0000 0.0000 0.0000 0.0000 0.0000 0.2766 0.0000 0.0000 83.4162 -79.7508 103.6824 0.0000 -0.1146 0.0000 -6.6942 12.2780 85.6633 0.0000 0.0000 0.0001 -66.1547 101.3104 61.4489 0.0000 0.1146 0.0000 -3.0280 -14.5803 -81.4508 -17.0619 0.0000 0.0000 105.1344 0.0000 0.0000 56.1650 0.0000 0.0000 22.5179 0.0000 0.0000 62.1160 0.1957 0.1196 63.3709 0.1485 0.3021 
-0.1564 -23.3961 -0.5081 -0.2395 0.0002 -2.7087 98.7401 0.0036 0.0559 0.0000 0.0000 0.0000 -28.3239 0.0000 0.0000 0.0000 0.0000 0.0000 1.1112 0.0000 0.0000 83.4162 -79.7508 103.6825 0.0000 -0.1146 0.0000 -6.6942 12.2780 85.6633 0.0000 0.0000 0.0001 -66.6900 101.3104 61.4488 0.0000 0.1146 0.0000 -3.0280 -14.5803 -81.4508 -15.0092 0.0000 0.0000 102.7325 0.0000 0.0000 56.1650 0.0000 0.0000 20.4069 0.0000 0.0000 64.3650 0.2078 0.1160 63.3709 0.1485 0.3021 
-0.1637 -23.3958 -0.5081 -0.2395 0.0005 -2.8356 98.7641 0.0035 0.0548 0.0000 0.0000 0.0000 -29.1697 0.0000 0.0000 0.0000 0.0000 0.0000 2.4810 0.0000 0.0000 83.4162 -79.7508 103.6824 0.0000 -0.1146 0.0000 -6.6942 12.2780 85.6633 0.0000 0.0000 0.0001 -67.5682 101.3104 61.4488 0.0000 0.1146 0.0000 -3.0280 -14.5803 -81.4508 -11.6217 0.0000 0.0000 98.7588 0.0000 0.0000 56.1650 0.0000 0.0000 16.9217 0.0000 0.0000 68.0816 0.2277 0.1084 63.3709 0.1485 0.3021 
-0.1735 -23.3953 -0.5081 -0.2395 0.0008 -3.0046 98.7978 0.0034 0.0532 0.0000 0.0000 0.0000 -30.2973 0.0000 0.0000 0.0000 0.0000 0.0000 4.3084 0.0000 0.0000 83.4162 -79.7508 103.6825 0.0000 -0.1146 0.0000 -6.6942 12.2780 85.6633 0.0000 0.0000 0.0001 -68.7388 101.3104 61.4488 0.0000 0.1146 0.0000 -3.0280 -14.5803 -81.4508 -7.0741 0.0000 0.0000 93.4087 0.0000 0.0000 56.1650 0.0000 0.0000 12.2409 0.0000 0.0000 73.0787 0.2535 0.0946 63.3709 0.1485 0.3021 
-0.1849 -23.3947 -0.5081 -0.2395 0.0012 -3.2025 98.8408 0.0033 0.0513 0.0000 0.0000 0.0000 -31.6176 0.0000 0.0000 0.0000 0.0000 0.0000 6.4495 0.0000 0.0000 83.4162 -79.7508 103.6824 0.0000 -0.1146 0.0000 -6.6942 12.2780 85.6633 0.0000 0.0000 0.0001 -70.1096 101.3104 61.4488 0.0000 0.1146 0.0000 -3.0280 -14.5803 -81.4508 -1.7190 0.0000 0.0000 87.0940 0.0000 0.0000 56.1650 0.0000 0.0000 6.7269 0.0000 0.0000 78.9706 0.2819 0.0732 63.3709 0.1485 0.3021 
-0.1969 -23.3940 -0.5081 -0.2395 0.0017 -3.4107 98.8929 0.0032 0.0489 0.0000 0.0000 0.0000 -33.0069 0.0000 0.0000 0.0000 0.0000 0.0000 8.7029 0.0000 0.0000 83.4162 -79.7508 103.6825 0.0000 -0.1146 0.0000 -6.6942 12.2780 85.6633 0.0000 0.0000 0.0001 -71.5521 101.3104 61.4488 0.0000 0.1146 0.0000 -3.0280 -14.5804 -81.4508 3.9279 0.0000 0.0000 80.4293 0.0000 0.0000 56.1650 0.0000 0.0000 0.9117 0.0000 0.0000 85.1865 0.3084 0.0453 63.3709 0.1485 0.3021 
-0.2083 -23.3933 -0.5081 -0.2395 0.0021 -3.6086 98.9533 0.0030 0.0461 0.0000 0.0000 0.0000 -34.3273 0.0000 0.0000 0.0000 0.0000 0.0000 10.8440 0.0000 0.0000 83.4162 -79.7508 103.6824 0.0000 -0.1146 0.0000 -6.6942 12.2780 85.6633 0.0000 0.0000 0.0001 -72.9229 101.3104 61.4488 0.0000 0.1146 0.0000 -3.0280 -14.5804 -81.4508 9.2830 0.0000 0.0000 74.1145 0.0000 0.0000 56.1650 0.0000 0.0000 -4.6023 0.0000 0.0000 91.0785 0.3292 0.0141 63.3709 0.1485 0.3021 
-0.2181 -23.3926 -0.5081 -0.2395 0.0024 -3.7776 99.0213 0.0029 0.0430 0.0000 0.0000 0.0000 -35.4549 0.0000 0.0000 0.0000 0.0000 0.0000 12.6714 0.0000 0.0000 83.4162 -79.7508 103.6824 0.0000 -0.1146 0.0000 -6.6942 12.2780 85.6633 0.0000 0.0000 0.0001 -74.0934 101.3104 61.4487 0.0000 0.1146 0.0000 -3.0280 -14.5803 -81.4508 13.8306 0.0000 0.0000 68.7645 0.0000 0.0000 56.1650 0.0000 0.0000 -9.2831 0.0000 0.0000 96.0758 0.3429 -0.0152 63.3709 0.1485 0.3021 
-0.2254 -23.3922 -0.5081 -0.2395 0.0027 -3.9045 99.0956 0.0027 0.0396 0.0000 0.0000 0.0000 -36.3007 0.0000 0.0000 0.0000 0.0000 0.0000 14.0412 0.0000 0.0000 83.4162 -79.7508 103.6825 0.0000 -0.1146 0.0000 -6.6942 12.2780 85.6633 0.0000 0.0000 0.0001 -74.9716 101.3104 61.4487 0.0000 0.1146 0.0000 -3.0280 -14.5803 -81.4508 17.2181 0.0000 0.0000 64.7908 0.0000 0.0000 56.1650 0.0000 0.0000 -12.7683 0.0000 0.0000 99.7924 0.3506 -0.0384 63.3709 0.1485 0.3021 
-0.2298 -23.3918 -0.5081 -0.2395 0.0029 -3.9819 99.1750 0.0024 0.0360 0.0000 0.0000 0.0000 -36.8164 0.0000 0.0000 0.0000 0.0000 0.0000 14.8758 0.0000 0.0000 83.4162 -79.7508 103.6825 0.0000 -0.1146 0.0000 -6.6942 12.2780 85.6633 0.0000 0.0000 0.0001 -75.5070 101.3104 61.4488 0.0000 0.1146 0.0000 -3.0280 -14.5804 -81.4508 19.2708 0.0000 0.0000 62.3889 0.0000 0.0000 56.1650 0.0000 0.0000 -14.8793 0.0000 0.0000 102.0415 0.3540 -0.0530 63.3709 0.1485 0.3021 
-0.2313 -23.3917 -0.5081 -0.2395 0.0029 -4.0075 99.2579 0.0022 0.0322 0.0000 0.0000 0.0000 -36.9874 0.0000 0.0000 0.0000 0.0000 0.0000 15.1524 0.0000 0.0000 83.4162 -79.7508 103.6825 0.0000 -0.1146 0.0000 -6.6942 12.2780 85.6633 0.0000 0.0000 0.0001 -75.6845 101.3104 61.4488 0.0000 0.1146 0.0000 -3.0280 -14.5803 -81.4508 19.9490 0.0000 0.0000 61.5964 0.0000 0.0000 56.1650 0.0000 0.0000 -15.5767 0.0000 0.0000 102.7840 0.3550 -0.0578 63.3709 0.1485 0.3021 
-0.2303 -23.3918 -0.5081 -0.2394 0.0029 -3.9892 99.3426 0.0020 0.0284 0.0000 0.0000 0.0000 -36.8651 0.0000 0.0000 0.0000 0.0000 0.0000 14.9547 0.0000 0.0000 83.4162 -79.7508 103.6825 0.0000 -0.1146 0.0000 -6.6942 12.2780 85.6633 0.0000 0.0000 0.0001 -75.5575 101.3104 61.4487 0.0000 0.1146 0.0000 -3.0280 -14.5803 -81.4508 19.4642 0.0000 0.0000 62.1628 0.0000 0.0000 56.1650 0.0000 0.0000 -15.0783 0.0000 0.0000 102.2533 0.3543 -0.0543 63.3709 0.1485 0.3021 
-0.2271 -23.3920 -0.5081 -0.2394 0.0028 -3.9337 99.4273 0.0017 0.0245 0.0000 0.0000 0.0000 -36.4958 0.0000 0.0000 0.0000 0.0000 0.0000 14.3570 0.0000 0.0000 83.4162 -79.7508 103.6824 0.0000 -0.1146 0.0000 -6.6942 12.2780 85.6633 0.0000 0.0000 0.0001 -75.1742 101.3104 61.4488 0.0000 0.1146 0.0000 -3.0280 -14.5803 -81.4508 17.9958 0.0000 0.0000 63.8802 0.0000 0.0000 56.1650 0.0000 0.0000 -13.5682 0.0000 0.0000 100.6448 0.3520 -0.0439 63.3709 0.1485 0.3021 
-0.2218 -23.3924 -0.5081 -0.2394 0.0026 -3.8420 99.5102 0.0015 0.0207 0.0000 0.0000 0.0000 -35.8841 0.0000 0.0000 0.0000 0.0000 0.0000 13.3667 0.0000 0.0000 83.4162 -79.7508 103.6825 0.0000 -0.1146 0.0000 -6.6942 12.2780 85.6633 0.0000 0.0000 0.0000 -74.5391 101.3104 61.4487 0.0000 0.1146 0.0000 -3.0280 -14.5803 -81.4508 15.5526 0.0000 0.0000 66.7431 0.0000 0.0000 56.1650 0.0000 0.0000 -11.0550 0.0000 0.0000 97.9658 0.3471 -0.0269 63.3709 0.1485 0.3021 
-0.2146 -23.3929 -0.5081 -0.2394 0.0023 -3.7170 99.5896 0.0012 0.0171 0.0000 0.0000 0.0000 -35.0506 0.0000 0.0000 0.0000 0.0000 0.0000 12.0164 0.0000 0.0000 83.4162 -79.7508 103.6824 0.0000 -0.1146 0.0000 -6.6942 12.2780 85.6633 0.0000 0.0000 0.0001 -73.6738 101.3104 61.4488 0.0000 0.1146 0.0000 -3.0280 -14.5803 -81.4508 12.2037 0.0000 0.0000 70.6767 0.0000 0.0000 56.1650 0.0000 0.0000 -7.6088 0.0000 0.0000 94.2889 0.3385 -0.0045 63.3709 0.1485 0.3021 
-0.2058 -23.3934 -0.5081 -0.2394 0.0020 -3.5649 99.6639 0.0010 0.0137 0.0000 0.0000 0.0000 -34.0357 0.0000 0.0000 0.0000 0.0000 0.0000 10.3712 0.0000 0.0000 83.4162 -79.7508 103.6824 0.0000 -0.1146 0.0000 -6.6942 12.2780 85.6633 0.0000 0.0000 0.0001 -72.6201 101.3104 61.4488 0.0000 0.1146 0.0000 -3.0280 -14.5804 -81.4508 8.1023 0.0000 0.0000 75.5058 0.0000 0.0000 56.1650 0.0000 0.0000 -3.3867 0.0000 0.0000 89.7800 0.3250 0.0213 63.3709 0.1485 0.3021 
-0.1960 -23.3940 -0.5081 -0.2394 0.0016 -3.3948 99.7319 0.0008 0.0106 0.0000 0.0000 0.0000 -32.9008 0.0000 0.0000 0.0000 0.0000 0.0000 8.5307 0.0000 0.0000 83.4162 -79.7508 103.6825 0.0000 -0.1146 0.0000 -6.6942 12.2780 85.6633 0.0000 0.0000 0.0000 -71.4418 101.3104 61.4488 0.0000 0.1146 0.0000 -3.0280 -14.5803 -81.4508 3.4965 0.0000 0.0000 80.9383 0.0000 0.0000 56.1650 0.0000 0.0000 1.3559 0.0000 0.0000 84.7117 0.3065 0.0476 63.3709 0.1485 0.3021 
-0.1858 -23.3946 -0.5081 -0.2394 0.0013 -3.2184 99.7923 0.0006 0.0078 0.0000 0.0000 0.0000 -31.7238 0.0000 0.0000 0.0000 0.0000 0.0000 6.6217 0.0000 0.0000 83.4162 -79.7508 103.6825 0.0000 -0.1146 0.0000 -6.6942 12.2780 85.6633 0.0000 0.0000 0.0001 -70.2198 101.3104 61.4488 0.0000 0.1146 0.0000 -3.0280 -14.5803 -81.4508 -1.2876 0.0000 0.0000 86.5849 0.0000 0.0000 56.1650 0.0000 0.0000 6.2827 0.0000 0.0000 79.4454 0.2841 0.0713 63.3709 0.1485 0.3021 
-0.1760 -23.3952 -0.5081 -0.2394 0.0009 -3.0484 99.8444 0.0004 0.0055 0.0000 0.0000 0.0000 -30.5889 0.0000 0.0000 0.0000 0.0000 0.0000 4.7812 0.0000 0.0000 83.4161 -79.7508 103.6824 0.0000 -0.1146 0.0000 -6.6942 12.2780 85.6633 0.0000 0.0000 0.0001 -69.0416 101.3104 61.4488 0.0000 0.1146 0.0000 -3.0280 -14.5803 -81.4508 -5.8934 0.0000 0.0000 92.0175 0.0000 0.0000 56.1650 0.0000 0.0000 11.0253 0.0000 0.0000 74.3772 0.2600 0.0903 63.3709 0.1485 0.3021 
-0.1672 -23.3956 -0.5081 -0.2394 0.0006 -2.8962 99.8875 0.0003 0.0035 0.0000 0.0000 0.0000 -29.5740 0.0000 0.0000 0.0000 0.0000 0.0000 3.1361 0.0000 0.0000 83.4162 -79.7508 103.6824 0.0000 -0.1146 0.0000 -6.6942 12.2780 85.6633 0.0000 0.0000 0.0001 -67.9879 101.3104 61.4489 0.0000 0.1146 0.0000 -3.0280 -14.5804 -81.4508 -9.9948 0.0000 0.0000 96.8466 0.0000 0.0000 56.1650 0.0000 0.0000 15.2474 0.0000 0.0000 69.8684 0.2370 0.1039 63.3709 0.1485 0.3021 
-0.1600 -23.3960 -0.5081 -0.2394 0.0003 -2.7712 99.9211 0.0001 0.0020 0.0000 0.0000 0.0000 -28.7405 0.0000 0.0000 0.0000 0.0000 0.0000 1.7857 0.0000 0.0000 83.4162 -79.7508 103.6824 0.0000 -0.1146 0.0000 -6.6942 12.2780 85.6633 0.0000 0.0000 0.0001 -67.1225 101.3104 61.4488 0.0000 0.1146 0.0000 -3.0280 -14.5803 -81.4508 -13.3438 0.0000 0.0000 100.7802 0.0000 0.0000 56.1650 0.0000 0.0000 18.6936 0.0000 0.0000 66.1916 0.2176 0.1125 63.3709 0.1485 0.3021 
-0.1547 -23.3962 -0.5081 -0.2394 0.0001 -2.6795 99.9452 0.0001 0.0009 0.0000 0.0000 0.0000 -28.1288 0.0000 0.0000 0.0000 0.0000 0.0000 0.7954 0.0000 0.0000 83.4161 -79.7508 103.6824 0.0000 -0.1146 0.0000 -6.6942 12.2780 85.6633 0.0000 0.0000 0.0001 -66.4875 101.3104 61.4488 0.0000 0.1146 0.0000 -3.0280 -14.5804 -81.4508 -15.7870 0.0000 0.0000 103.6431 0.0000 0.0000 56.1650 0.0000 0.0000 21.2068 0.0000 0.0000 63.5126 0.2033 0.1175 63.3709 0.1485 0.3021 
-0.1515 -23.3964 -0.5081 -0.2394 0.0000 -2.6241 99.9595 0.0000 0.0002 0.0000 0.0000 0.0000 -27.7594 0.0000 0.0000 0.0000 0.0000 0.0000 0.1977 0.0000 0.0000 83.4162 -79.7508 103.6824 0.0000 -0.1146 0.0000 -6.6942 12.2780 85.6633 0.0000 0.0000 0.0001 -66.1040 101.3104 61.4487 0.0000 0.1146 0.0000 -3.0280 -14.5804 -81.4508 -17.2554 0.0000 0.0000 105.3605 0.0000 0.0000 56.1650 0.0000 0.0000 22.7169 0.0000 0.0000 61.9041 0.1946 0.1199 63.3709 0.1485 0.3021 
